<?xml version="1.0" standalone="no"?>
<!DOCTYPE svg PUBLIC "-//W3C//DTD SVG 20010904//EN"
 "http://www.w3.org/TR/2001/REC-SVG-20010904/DTD/svg10.dtd">
<svg version="1.0" xmlns="http://www.w3.org/2000/svg"
 width="88.000000pt" height="88.000000pt" viewBox="0 0 88.000000 88.000000"
 preserveAspectRatio="xMidYMid meet">

<g transform="translate(0.000000,88.000000) scale(0.100000,-0.100000)"
fill="#000000" stroke="none">
<path d="M336 671 c-4 -5 -2 -12 3 -15 5 -4 12 -2 15 3 4 5 2 12 -3 15 -5 4
-12 2 -15 -3z"/>
<path d="M526 671 c-4 -5 -2 -12 3 -15 5 -4 12 -2 15 3 4 5 2 12 -3 15 -5 4
-12 2 -15 -3z"/>
<path d="M430 659 c0 -5 5 -7 10 -4 6 3 10 8 10 11 0 2 -4 4 -10 4 -5 0 -10
-5 -10 -11z"/>
<path d="M236 571 c-4 -5 -2 -12 3 -15 5 -4 12 -2 15 3 4 5 2 12 -3 15 -5 4
-12 2 -15 -3z"/>
<path d="M336 571 c-4 -5 -2 -12 3 -15 5 -4 12 -2 15 3 4 5 2 12 -3 15 -5 4
-12 2 -15 -3z"/>
<path d="M426 571 c-4 -5 -2 -12 3 -15 5 -4 12 -2 15 3 4 5 2 12 -3 15 -5 4
-12 2 -15 -3z"/>
<path d="M526 571 c-4 -5 -2 -12 3 -15 5 -4 12 -2 15 3 4 5 2 12 -3 15 -5 4
-12 2 -15 -3z"/>
<path d="M626 571 c-4 -5 -2 -12 3 -15 5 -4 12 -2 15 3 4 5 2 12 -3 15 -5 4
-12 2 -15 -3z"/>
<path d="M336 471 c-4 -5 -2 -12 3 -15 5 -4 12 -2 15 3 4 5 2 12 -3 15 -5 4
-12 2 -15 -3z"/>
<path d="M426 471 c-4 -5 -2 -12 3 -15 5 -4 12 -2 15 3 4 5 2 12 -3 15 -5 4
-12 2 -15 -3z"/>
<path d="M526 471 c-4 -5 -2 -12 3 -15 5 -4 12 -2 15 3 4 5 2 12 -3 15 -5 4
-12 2 -15 -3z"/>
<path d="M426 371 c-4 -5 -2 -12 3 -15 5 -4 12 -2 15 3 4 5 2 12 -3 15 -5 4
-12 2 -15 -3z"/>
<path d="M123 283 c12 -3 17 -15 17 -43 0 -21 5 -42 10 -45 6 -4 10 12 10 39
0 34 4 46 15 46 11 0 15 -11 15 -39 0 -44 17 -65 22 -29 4 30 29 29 45 -2 7
-14 13 -19 13 -12 0 9 5 10 19 2 11 -5 36 -10 55 -10 32 0 36 3 36 25 0 18 5
25 20 25 15 0 20 -7 20 -25 0 -22 4 -25 39 -25 22 0 44 6 51 15 10 12 15 12
34 0 19 -13 25 -13 44 1 20 14 22 14 23 -3 1 -12 3 -10 8 7 4 16 14 25 26 25
12 0 22 -9 26 -25 4 -14 7 -20 8 -13 1 8 8 8 30 0 17 -6 36 -7 47 -2 16 8 14
10 -14 13 -40 4 -38 24 4 33 l29 7 -33 1 c-41 1 -39 23 4 32 16 3 -15 6 -68 7
l-98 1 0 -40 c0 -33 -3 -40 -17 -37 -13 2 -19 14 -21 41 -3 36 -4 37 -46 37
-23 0 -47 -5 -53 -11 -8 -8 -13 -8 -17 0 -11 18 -45 13 -58 -9 -8 -12 -24 -20
-40 -20 -41 0 -36 28 5 32 17 2 -26 4 -98 5 -72 0 -122 -1 -112 -4z m127 -18
c0 -8 -9 -15 -20 -15 -20 0 -26 11 -13 23 12 13 33 7 33 -8z m168 -3 c2 -7 -6
-12 -17 -12 -21 0 -27 11 -14 24 9 9 26 2 31 -12z m102 0 c0 -15 -6 -18 -30
-14 -44 6 -38 32 7 32 16 0 23 -6 23 -18z m141 3 c0 -5 -9 -11 -21 -13 -20 -3
-27 8 -13 22 10 9 34 3 34 -9z m-377 -26 c-3 -5 -10 -7 -15 -3 -5 3 -7 10 -3
15 3 5 10 7 15 3 5 -3 7 -10 3 -15z m410 0 c-3 -5 -10 -7 -15 -3 -5 3 -7 10
-3 15 3 5 10 7 15 3 5 -3 7 -10 3 -15z m-196 -17 c2 -8 -8 -12 -27 -12 -24 0
-31 4 -31 19 0 16 5 18 27 12 15 -4 28 -12 31 -19z m-140 1 c2 -9 -7 -13 -27
-13 -30 0 -39 9 -24 24 11 10 46 3 51 -11z"/>
</g>
</svg>
