<?xml version="1.0" standalone="no"?>
<!DOCTYPE svg PUBLIC "-//W3C//DTD SVG 20010904//EN"
 "http://www.w3.org/TR/2001/REC-SVG-20010904/DTD/svg10.dtd">
<svg version="1.0" xmlns="http://www.w3.org/2000/svg"
 width="672.000000pt" height="505.000000pt" viewBox="0 0 672.000000 505.000000"
 preserveAspectRatio="xMidYMid meet">

<g transform="translate(0.000000,505.000000) scale(0.100000,-0.100000)"
fill="#000000" stroke="none">
<path d="M4336 4979 c-10 -55 -67 -123 -125 -151 -28 -12 -50 -25 -51 -28 0
-4 16 -12 35 -19 52 -18 122 -94 139 -149 8 -26 15 -39 15 -29 3 57 102 169
165 185 l30 8 -45 22 c-74 36 -129 100 -149 172 -6 23 -7 23 -14 -11z"/>
<path d="M2347 4945 c-22 -51 -79 -107 -131 -126 -20 -7 -36 -16 -36 -19 0 -3
15 -11 33 -18 52 -19 113 -77 133 -127 11 -25 22 -45 26 -45 3 0 9 13 13 29 9
44 78 116 130 137 25 11 45 22 45 25 0 4 -14 9 -31 13 -40 8 -134 102 -144
144 -3 18 -10 32 -13 32 -4 0 -15 -20 -25 -45z"/>
<path d="M3316 4945 c-21 -52 -93 -121 -137 -130 -38 -9 -37 -18 4 -33 52 -19
113 -77 133 -127 11 -25 21 -45 24 -45 3 0 13 20 24 45 20 50 81 108 133 127
41 15 42 24 4 33 -44 9 -116 78 -137 130 -11 25 -21 45 -24 45 -3 0 -13 -20
-24 -45z"/>
<path d="M4332 3957 c-16 -59 -63 -111 -129 -143 l-56 -28 37 -12 c20 -7 51
-24 69 -38 35 -27 87 -111 88 -142 0 -11 9 4 20 33 23 60 97 133 151 150 l33
10 -30 12 c-78 31 -133 89 -160 167 l-11 33 -12 -42z"/>
<path d="M1346 3947 c-21 -55 -77 -114 -135 -139 l-43 -20 48 -22 c59 -27 117
-89 134 -142 l13 -39 11 30 c28 78 82 134 153 159 l36 12 -59 30 c-63 31 -108
80 -128 138 l-13 37 -17 -44z"/>
<path d="M5337 3948 c-21 -54 -79 -112 -143 -143 -27 -14 -41 -25 -31 -25 55
-1 135 -68 172 -145 l22 -47 7 28 c17 67 117 164 170 164 14 0 0 12 -38 33
-65 35 -111 85 -130 141 l-13 37 -16 -43z"/>
<path d="M2351 3944 c-19 -52 -67 -102 -129 -133 -55 -28 -55 -28 -25 -34 49
-10 115 -67 143 -124 14 -29 28 -52 32 -52 3 -1 9 12 13 28 13 59 116 150 172
151 10 1 -7 14 -38 30 -63 33 -125 97 -134 141 -9 38 -18 37 -34 -7z"/>
<path d="M3321 3944 c-19 -52 -67 -102 -129 -133 -55 -28 -55 -28 -25 -34 50
-10 115 -67 143 -124 14 -29 27 -52 30 -52 3 0 16 23 30 52 28 57 93 114 143
124 30 6 30 6 -25 34 -62 31 -124 96 -133 140 -9 38 -18 37 -34 -7z"/>
<path d="M4332 2942 c-17 -55 -65 -107 -127 -138 l-55 -27 47 -22 c76 -35 142
-114 143 -172 1 -10 10 4 20 31 24 62 71 112 134 142 l49 23 -37 15 c-62 26
-104 66 -134 126 l-29 58 -11 -36z"/>
<path d="M2346 2925 c-21 -52 -96 -124 -138 -132 -39 -8 -43 -19 -9 -26 47
-10 113 -68 141 -124 14 -29 27 -52 30 -52 4 -1 12 15 19 35 19 52 69 104 124
130 l49 22 -43 20 c-53 23 -127 101 -136 142 -3 17 -8 30 -12 30 -3 0 -14 -20
-25 -45z"/>
<path d="M3316 2925 c-21 -52 -96 -124 -138 -132 -37 -7 -35 -16 5 -31 52 -19
113 -77 133 -127 11 -25 21 -45 24 -45 3 0 13 20 23 45 21 50 72 99 130 125
l39 17 -46 23 c-54 26 -122 99 -131 141 -4 16 -10 29 -13 29 -4 0 -15 -20 -26
-45z"/>
<path d="M3325 1931 c-9 -44 -78 -116 -136 -144 -51 -24 -51 -24 -22 -30 49
-10 115 -67 143 -124 14 -29 27 -52 30 -52 3 0 16 23 30 51 28 57 79 103 135
122 l38 13 -36 12 c-50 17 -121 83 -146 136 -12 25 -23 45 -25 45 -3 0 -7 -13
-11 -29z"/>
<path d="M0 925 l0 -85 155 0 155 0 0 -420 0 -420 110 0 110 0 0 420 0 420
155 0 155 0 0 -420 0 -420 110 0 110 0 0 210 0 210 146 0 c160 0 198 -9 231
-58 15 -23 19 -53 21 -195 l4 -168 106 3 107 3 2 90 c1 50 2 92 3 95 0 3 12
-16 25 -42 33 -64 84 -110 142 -131 43 -15 95 -17 471 -17 l422 0 0 210 0 210
200 0 200 0 0 -210 0 -210 405 0 c449 0 458 1 543 68 113 90 136 281 48 401
-66 89 -156 121 -344 121 -138 0 -171 10 -197 60 -22 43 -19 102 7 135 40 51
65 55 343 55 l255 0 0 -243 c0 -221 2 -249 21 -306 56 -167 199 -277 372 -289
161 -11 323 84 397 232 17 32 30 67 30 77 0 10 5 21 10 24 7 4 10 -53 10 -165
l0 -171 108 3 107 3 2 205 1 205 154 3 c235 4 248 -11 248 -262 l0 -156 105 0
105 0 0 88 c0 49 3 92 7 95 3 4 14 -10 23 -31 26 -58 66 -99 125 -126 l54 -26
315 0 316 0 0 85 0 85 -260 0 c-280 0 -300 3 -332 52 -27 42 -30 76 -9 123 32
73 42 75 341 75 l260 0 0 85 0 85 -261 0 c-224 0 -265 2 -289 16 -60 36 -80
126 -38 179 40 51 65 55 338 55 l250 0 0 86 0 85 -322 -3 -323 -3 -54 -30
c-58 -32 -106 -88 -116 -135 -9 -43 -22 -45 -35 -6 -19 58 -67 114 -122 143
l-53 28 -432 3 -433 3 0 -339 0 -338 -26 -53 c-39 -78 -87 -106 -180 -106 -66
0 -76 3 -110 31 -83 67 -79 41 -82 445 l-3 360 -417 -3 c-379 -3 -421 -5 -457
-22 -107 -49 -173 -143 -182 -259 -7 -86 28 -168 100 -232 68 -62 118 -75 287
-75 126 0 140 -2 171 -23 40 -27 66 -89 55 -132 -4 -15 -22 -43 -41 -62 l-33
-33 -274 2 -273 3 -1 246 c-2 226 -3 251 -23 304 -72 192 -264 309 -453 276
-183 -32 -316 -163 -349 -344 l-12 -67 -266 0 c-197 1 -272 4 -289 14 -37 20
-62 66 -62 114 0 34 6 49 34 80 l34 37 276 3 276 3 -2 85 -2 85 -325 -3 c-312
-3 -328 -4 -366 -25 -55 -29 -100 -79 -126 -138 l-22 -50 -15 44 c-9 27 -34
64 -62 92 -82 82 -50 79 -877 79 l-723 0 0 -85z m1407 -113 c68 -49 65 -151
-6 -199 -32 -21 -45 -23 -187 -23 l-154 0 0 126 0 125 158 -3 c145 -3 159 -5
189 -26z m1588 17 c80 -22 145 -115 145 -206 l0 -33 -200 0 -200 0 0 47 c0
107 86 199 190 202 14 1 43 -4 65 -10z m2592 -6 c65 -31 87 -117 45 -181 -29
-45 -60 -52 -222 -52 l-150 0 0 125 0 125 146 0 c116 0 153 -3 181 -17z m308
-149 c9 -51 97 -138 154 -154 39 -10 49 -30 15 -30 -22 0 -75 -29 -107 -59
-31 -28 -67 -91 -67 -115 0 -34 -20 -24 -32 16 -17 58 -102 144 -152 153 -51
10 -52 20 -4 34 57 17 143 105 158 160 13 48 25 46 35 -5z m-4196 -7 c28 -65
70 -108 136 -138 49 -22 56 -29 40 -34 -104 -34 -151 -81 -190 -190 -5 -16
-10 -11 -26 31 -25 67 -88 129 -153 150 l-50 17 53 20 c65 23 121 78 147 140
10 26 20 47 22 47 1 0 11 -19 21 -43z m821 -372 l0 -125 -271 0 -271 0 -39 39
c-34 34 -39 44 -39 86 0 42 5 52 39 86 l39 39 271 0 271 0 0 -125z"/>
</g>
</svg>
