<svg fill="#000000" xmlns="http://www.w3.org/2000/svg"  viewBox="0 0 50 50" width="20" height="20"><path d="M 14 4 C 8.486 4 4 8.486 4 14 L 4 36 C 4 41.514 8.486 46 14 46 L 36 46 C 41.514 46 46 41.514 46 36 L 46 14 C 46 8.486 41.514 4 36 4 L 14 4 z M 14 6 L 36 6 C 40.411 6 44 9.589 44 14 L 44 36 C 44 40.411 40.411 44 36 44 L 14 44 C 9.589 44 6 40.411 6 36 L 6 14 C 6 9.589 9.589 6 14 6 z M 21 12 C 13.46 12 11 18.23 11 22 C 11 25.77 13.220703 27.409922 13.220703 28.669922 C 13.220703 30.739922 11 32 11 32 L 21 32 C 21.64 32 22.250078 31.949609 22.830078 31.849609 C 23.530078 31.739609 24.190781 31.560313 24.800781 31.320312 C 28.750781 29.800313 31 25.950781 31 22.050781 C 31 21.720781 30.979453 21.37 30.939453 21 C 30.869453 20.37 30.739063 19.699766 30.539062 19.009766 C 29.519062 15.619766 26.72 12 21 12 z M 21 14 C 25.55 14 27.689297 16.719062 28.529297 19.289062 C 28.759297 19.969062 28.889219 20.630234 28.949219 21.240234 C 28.989219 21.530234 29 21.800781 29 22.050781 C 29 25.030781 27.320625 28.159688 24.140625 29.429688 C 23.550625 29.659688 22.910938 29.829922 22.210938 29.919922 C 21.820937 29.969922 21.42 30 21 30 L 15.039062 30 C 15.159062 29.59 15.220703 29.139922 15.220703 28.669922 C 15.220703 27.669922 14.739297 26.839062 14.279297 26.039062 C 13.679297 25.009062 13 23.85 13 22 C 13 19.23 14.67 14 21 14 z M 21 18.007812 C 20.911 18.007812 20.821391 18.053484 20.775391 18.146484 L 19.875 20.273438 C 19.842 20.340438 19.780031 20.38925 19.707031 20.40625 L 17.203125 20.888672 C 17.004125 20.935672 16.943609 21.189266 17.099609 21.322266 L 18.986328 22.527344 C 19.054328 22.584344 19.085313 22.672766 19.070312 22.759766 L 18.599609 24.712891 C 18.565609 24.908891 18.761359 25.063375 18.943359 24.984375 L 20.900391 24.019531 C 20.963391 23.992531 21.036609 23.992531 21.099609 24.019531 L 23.048828 24.978516 C 23.230828 25.056516 23.428531 24.901078 23.394531 24.705078 L 22.929688 22.761719 C 22.914687 22.674719 22.946672 22.584344 23.013672 22.527344 L 24.90625 21.318359 C 25.06225 21.185359 25.002734 20.931766 24.802734 20.884766 L 22.292969 20.40625 C 22.219969 20.38925 22.158 20.340438 22.125 20.273438 L 21.224609 18.146484 C 21.178609 18.053484 21.089 18.007812 21 18.007812 z M 32.640625 19.119141 C 32.770625 19.669141 32.869688 20.229062 32.929688 20.789062 C 32.949688 20.929063 32.960938 21.080703 32.960938 21.220703 C 37.940937 22.380703 38 27.94 38 28 C 38 29.61 37.400859 30.629062 36.880859 31.539062 C 36.450859 32.279063 36 33.05 36 34 C 36 34.35 36.039375 34.69 36.109375 35 L 31 35 C 28.85 35 27.160469 34.200234 25.980469 32.990234 C 25.830469 33.060234 25.679297 33.119687 25.529297 33.179688 C 25.009297 33.389688 24.469922 33.549922 23.919922 33.669922 C 25.459922 35.649922 27.88 37 31 37 L 40 37 C 40 37 38 35.87 38 34 C 38 32.87 40 31.39 40 28 C 40 24.9 38.140625 19.939141 32.640625 19.119141 z"/></svg>